<?xml version="1.0" encoding="UTF-8" standalone="no"?>
<!-- Created with Inkscape (http://www.inkscape.org/) -->

<svg
   width="512"
   height="512"
   viewBox="0 0 135.46667 135.46667"
   version="1.1"
   id="svg1"
   xmlns:xlink="http://www.w3.org/1999/xlink"
   xmlns="http://www.w3.org/2000/svg"
   xmlns:svg="http://www.w3.org/2000/svg"
   xmlns:rdf="http://www.w3.org/1999/02/22-rdf-syntax-ns#"
   xmlns:cc="http://creativecommons.org/ns#"
   xmlns:dc="http://purl.org/dc/elements/1.1/">
  <defs
     id="defs1">
    <color-profile
       name="Display-P3"
       xlink:href="file:///System/Library/ColorSync/Profiles/Display%20P3.icc"
       id="color-profile1" />
    <color-profile
       name="sRGB-IEC61966-2.1"
       xlink:href="file:///System/Library/ColorSync/Profiles/sRGB%20Profile.icc"
       id="color-profile2" />
  </defs>
  <g
     id="layer1"
     style="display:inline">
    <path
       d="M 0,0 V 135.46667 H 135.46667 V 0 Z"
       style="fill:#ffffff;stroke-width:1.05833;stroke-linecap:square"
       id="path4" />
  </g>
  <g
     id="g39"
     transform="translate(-0.26458496,0.27594)"
     style="display:inline">
    <path
       style="color:#000000;fill:#05c3de;stroke-linecap:square;-inkscape-stroke:none"
       d="M 0.265625,-0.27539063 V 0.78320312 H 0.79492187 135.20117 h 0.5293 V -0.27539063 H 135.20117 0.79492187 Z"
       id="path26" />
    <path
       style="color:#000000;fill:#05c3de;stroke-linecap:square;-inkscape-stroke:none"
       d="m 0.26367188,129.33594 v 1.05859 H 0.79296875 135.20898 h 0.5293 v -1.05859 H 135.20898 0.79296875 Z"
       id="path27" />
    <path
       style="color:#000000;fill:#05c3de;stroke-linecap:square;-inkscape-stroke:none"
       d="m 0.26367188,123.96094 v 1.05859 H 0.79296875 134.94922 h 0.5293 v -1.05859 H 134.94922 0.79296875 Z"
       id="path28" />
    <path
       style="color:#000000;fill:#05c3de;stroke-linecap:square;-inkscape-stroke:none"
       d="m 0.26367188,113.48633 v 1.05859 H 0.79296875 135.20898 h 0.5293 v -1.05859 H 135.20898 0.79296875 Z"
       id="path29" />
    <path
       style="color:#000000;fill:#05c3de;stroke-linecap:square;-inkscape-stroke:none"
       d="m 0.265625,92.476562 v 1.058594 H 0.79492187 135.20117 h 0.5293 V 92.476562 H 135.20117 0.79492187 Z"
       id="path31" />
    <path
       style="color:#000000;fill:#05c3de;stroke-linecap:square;-inkscape-stroke:none"
       d="m 0.26367188,49.960937 v 1.058594 H 0.79296875 135.20898 h 0.5293 V 49.960937 H 135.20898 0.79296875 Z"
       id="path41" />
    <path
       style="color:#000000;fill:#05c3de;stroke-linecap:square;-inkscape-stroke:none"
       d="m 0.265625,134.14453 v 1.05664 H 0.79492187 135.20117 h 0.5293 v -1.05664 H 135.20117 0.79492187 Z"
       id="path32" />
  </g>
  <g
     id="g40"
     style="display:inline">
    <path
       style="color:#000000;fill:#05c3de;stroke-linecap:square;-inkscape-stroke:none"
       d="M 19.201172,0.26367188 V 0.79296875 134.94922 v 0.5293 h 1.058594 V 134.94922 0.79296875 0.26367188 Z"
       id="path33" />
    <path
       style="color:#000000;fill:#05c3de;stroke-linecap:square;-inkscape-stroke:none"
       d="M 38.404297,0 V 0.52929687 134.94922 v 0.5293 h 1.058594 V 134.94922 0.52929687 0 Z"
       id="path34" />
    <path
       style="color:#000000;fill:#05c3de;stroke-linecap:square;-inkscape-stroke:none"
       d="M 115.21289,0.00390625 V 0.53320312 134.93359 v 0.5293 h 1.05859 V 134.93359 0.53320312 0.00390625 Z"
       id="path35" />
    <path
       style="color:#000000;fill:#05c3de;stroke-linecap:square;-inkscape-stroke:none"
       d="M 96.009766,0.00390625 V 0.53320312 134.93359 v 0.5293 h 1.058593 V 134.93359 0.53320312 0.00390625 Z"
       id="path36" />
    <path
       style="color:#000000;fill:#05c3de;stroke-linecap:square;-inkscape-stroke:none"
       d="M 57.605469,-0.00390625 V 0.52539062 134.94141 135.4707 h 1.058593 V 134.94141 0.52539062 -0.00390625 Z"
       id="path38" />
    <path
       style="color:#000000;fill:#05c3de;stroke-linecap:square;-inkscape-stroke:none"
       d="M 76.808594,0 V 0.52929687 134.9375 v 0.5293 h 1.058593 V 134.9375 0.52929687 0 Z"
       id="path37" />
    <path
       style="color:#000000;fill:#05c3de;stroke-linecap:square;-inkscape-stroke:none"
       d="M 0,0 V 0.52929687 134.94922 v 0.5293 H 1.0585937 V 134.94922 0.52929687 0 Z"
       id="path39" />
    <path
       style="color:#000000;fill:#05c3de;stroke-linecap:square;-inkscape-stroke:none"
       d="M 134.41406,0.00390625 V 0.53320312 134.93359 v 0.5293 h 1.0586 V 134.93359 0.53320312 0.00390625 Z"
       id="path40" />
  </g>
  <path
     style="display:inline;fill:#05c3de;fill-opacity:1;stroke:none;stroke-width:1.05833;stroke-linecap:round;stroke-dasharray:none"
     d="M 4.3014705,64.311454 91.607452,0.53224062 106.53569,0.52916503 33.263616,53.379003 134.94368,14.045025 V 24.828261 L 28.879356,63.561455 134.94368,63.605605 v 8 L 28.831026,71.561455 134.94368,110.07921 v 10.04202 L 33.206406,81.736483 108.5746,134.94886 H 93.432527 L 4.3014703,70.811454 c -4.11395602,-3.471724 -4.13624935,-3.471724 2e-7,-6.5 v 0"
     id="path16" />
  <path
     d="M 18.440538,62.964848 H 9.1531186 V 33.993258 H 18.440538 Z M 18.698522,29.865516 H 8.8951347 v -7.04296 h 9.8033873 z m 26.391752,33.847485 q -4.282533,0 -7.920106,-1.264121 -3.611774,-1.264121 -6.217411,-3.766565 -2.605637,-2.502443 -4.050347,-6.24321 -1.418911,-3.740766 -1.418911,-8.64246 0,-4.566314 1.367314,-8.281282 1.367315,-3.714968 3.972952,-6.372202 2.502444,-2.55404 6.191613,-3.947153 3.714968,-1.393113 8.100694,-1.393113 2.425048,0 4.359927,0.283782 1.960678,0.257984 3.611775,0.696557 1.728492,0.490169 3.121605,1.10933 1.418911,0.593363 2.476645,1.109331 v 9.313218 h -1.135129 q -0.722355,-0.619161 -1.831686,-1.470508 -1.083532,-0.851347 -2.476645,-1.676895 -1.418911,-0.825549 -3.070008,-1.393113 -1.651097,-0.567565 -3.534379,-0.567565 -2.08967,0 -3.972952,0.670758 -1.883282,0.64496 -3.482782,2.167065 -1.522105,1.470508 -2.476645,3.895556 -0.928742,2.425049 -0.928742,5.882033 0,3.611774 1.006137,6.036823 1.031935,2.425048 2.579838,3.818161 1.573702,1.418911 3.508581,2.038073 1.934879,0.593363 3.818162,0.593363 1.805887,0 3.560177,-0.541767 1.780089,-0.541766 3.276395,-1.470508 1.264121,-0.748153 2.347654,-1.5995 1.083532,-0.851347 1.780088,-1.470508 h 1.031936 v 9.184226 q -1.44471,0.64496 -2.760428,1.212524 -1.315717,0.567565 -2.760427,0.980339 -1.883282,0.541766 -3.534379,0.825549 -1.651097,0.283782 -4.540516,0.283782 z m 49.45551,-0.748153 H 85.206767 V 48.595146 q 0,-1.754291 -0.180588,-3.482783 -0.180589,-1.75429 -0.619162,-2.579839 -0.515967,-0.95454 -1.522105,-1.393113 -0.980338,-0.438572 -2.760427,-0.438572 -1.264121,0 -2.579839,0.412774 -1.289919,0.412774 -2.812024,1.315718 v 20.535517 h -9.28742 V 22.822556 h 9.28742 v 14.369702 q 2.476645,-1.934879 4.746903,-2.966814 2.296057,-1.031936 5.082283,-1.031936 4.695306,0 7.326742,2.734629 2.657234,2.734629 2.657234,8.178089 z M 120.62795,55.40592 v -6.036823 q -1.88328,0.154791 -4.07614,0.438573 -2.19287,0.257984 -3.32799,0.619161 -1.39312,0.438573 -2.14127,1.289919 -0.72236,0.825549 -0.72236,2.192863 0,0.902944 0.15479,1.470509 0.1548,0.567564 0.77396,1.083532 0.59336,0.515968 1.41891,0.773951 0.82555,0.232186 2.57984,0.232186 1.39311,0 2.81202,-0.567565 1.44471,-0.567564 2.52824,-1.496306 z m 0,4.488919 q -0.74815,0.567565 -1.85748,1.367315 -1.10933,0.79975 -2.08967,1.264121 -1.36732,0.619161 -2.83782,0.902944 -1.47051,0.30958 -3.2248,0.30958 -4.12774,0 -6.91397,-2.55404 -2.78623,-2.554041 -2.78623,-6.526992 0,-3.173202 1.41892,-5.185476 1.41891,-2.012275 4.02454,-3.173202 2.57984,-1.160927 6.398,-1.651097 3.81817,-0.490169 7.92011,-0.722355 v -0.15479 q 0,-2.39925 -1.96068,-3.302194 -1.96068,-0.928742 -5.77884,-0.928742 -2.29605,0 -4.90169,0.825549 -2.60564,0.79975 -3.74077,1.238322 h -0.85134 v -6.991363 q 1.4705,-0.386975 4.7727,-0.902943 3.32799,-0.541766 6.65598,-0.541766 7.92011,0 11.42869,2.450846 3.53438,2.425049 3.53438,7.636323 v 19.709969 h -9.21003 z m 38.74918,-17.052734 h -0.82555 q -0.59336,-0.206387 -1.90908,-0.309581 -1.31572,-0.103193 -2.19286,-0.103193 -1.98648,0 -3.50859,0.257984 -1.5221,0.257984 -3.27639,0.877145 v 19.400388 h -9.28742 v -28.97159 h 9.28742 v 4.256734 q 3.07001,-2.631436 5.34027,-3.482782 2.27025,-0.877146 4.17933,-0.877146 0.49017,0 1.10934,0.0258 0.61916,0.0258 1.08353,0.07739 z m 23.78611,19.864759 q -1.49631,0.386976 -3.1732,0.593363 -1.6769,0.232185 -4.10195,0.232185 -5.41766,0 -8.07489,-2.192863 -2.63144,-2.192863 -2.63144,-7.507331 V 40.288065 h -3.81816 v -6.294807 h 3.81816 v -8.281282 h 9.28742 v 8.281282 h 8.69406 v 6.294807 h -8.69406 v 10.267758 q 0,1.522105 0.0258,2.657234 0.0258,1.135129 0.41277,2.038073 0.36118,0.902943 1.26413,1.444709 0.92874,0.515968 2.68303,0.515968 0.72235,0 1.88328,-0.309581 1.18673,-0.30958 1.6511,-0.567564 h 0.77395 z"
     id="text38"
     style="font-weight:bold;font-size:52.8351px;-inkscape-font-specification:'sans-serif Bold';display:none;fill:#068b9d;stroke-width:2.11667;stroke-linecap:round"
     transform="scale(0.70534113,1.4177537)"
     aria-label="iChart" />
</svg>
