<?xml version="1.0" encoding="UTF-8" standalone="no"?>
<!-- Created with Inkscape (http://www.inkscape.org/) -->

<svg
   width="512"
   height="512"
   viewBox="0 0 135.46667 135.46667"
   version="1.1"
   id="svg1"
   xmlns:xlink="http://www.w3.org/1999/xlink"
   xmlns="http://www.w3.org/2000/svg"
   xmlns:svg="http://www.w3.org/2000/svg"
   xmlns:rdf="http://www.w3.org/1999/02/22-rdf-syntax-ns#"
   xmlns:cc="http://creativecommons.org/ns#"
   xmlns:dc="http://purl.org/dc/elements/1.1/">
  <defs
     id="defs1">
    <color-profile
       name="Display-P3"
       xlink:href="file:///System/Library/ColorSync/Profiles/Display%20P3.icc"
       id="color-profile1" />
    <color-profile
       name="sRGB-IEC61966-2.1"
       xlink:href="file:///System/Library/ColorSync/Profiles/sRGB%20Profile.icc"
       id="color-profile2" />
  </defs>
  <g
     id="layer1"
     style="display:inline">
    <path
       d="M 0,0 V 135.46667 H 135.46667 V 0 Z"
       style="fill:#ffffff;stroke-width:1.05833;stroke-linecap:square"
       id="path4" />
  </g>
  <g
     id="g39"
     transform="translate(-0.26458496,0.27594)"
     style="display:inline">
    <path
       style="color:#000000;fill:#05c3de;stroke-linecap:square;-inkscape-stroke:none"
       d="M 0.265625,-0.27539063 V 0.78320312 H 0.79492187 135.20117 h 0.5293 V -0.27539063 H 135.20117 0.79492187 Z"
       id="path26" />
    <path
       style="color:#000000;fill:#05c3de;stroke-linecap:square;-inkscape-stroke:none"
       d="m 0.26367188,129.33594 v 1.05859 H 0.79296875 135.20898 h 0.5293 v -1.05859 H 135.20898 0.79296875 Z"
       id="path27" />
    <path
       style="color:#000000;fill:#05c3de;stroke-linecap:square;-inkscape-stroke:none"
       d="m 0.26367188,123.96094 v 1.05859 H 0.79296875 134.94922 h 0.5293 v -1.05859 H 134.94922 0.79296875 Z"
       id="path28" />
    <path
       style="color:#000000;fill:#05c3de;stroke-linecap:square;-inkscape-stroke:none"
       d="m 0.26367188,113.48633 v 1.05859 H 0.79296875 135.20898 h 0.5293 v -1.05859 H 135.20898 0.79296875 Z"
       id="path29" />
    <path
       style="color:#000000;fill:#05c3de;stroke-linecap:square;-inkscape-stroke:none"
       d="m 0.265625,92.476562 v 1.058594 H 0.79492187 135.20117 h 0.5293 V 92.476562 H 135.20117 0.79492187 Z"
       id="path31" />
    <path
       style="color:#000000;fill:#05c3de;stroke-linecap:square;-inkscape-stroke:none"
       d="m 0.26367188,49.960937 v 1.058594 H 0.79296875 135.20898 h 0.5293 V 49.960937 H 135.20898 0.79296875 Z"
       id="path41" />
    <path
       style="color:#000000;fill:#05c3de;stroke-linecap:square;-inkscape-stroke:none"
       d="m 0.265625,134.14453 v 1.05664 H 0.79492187 135.20117 h 0.5293 v -1.05664 H 135.20117 0.79492187 Z"
       id="path32" />
  </g>
  <g
     id="g40"
     style="display:inline">
    <path
       style="color:#000000;fill:#05c3de;stroke-linecap:square;-inkscape-stroke:none"
       d="M 19.201172,0.26367188 V 0.79296875 134.94922 v 0.5293 h 1.058594 V 134.94922 0.79296875 0.26367188 Z"
       id="path33" />
    <path
       style="color:#000000;fill:#05c3de;stroke-linecap:square;-inkscape-stroke:none"
       d="M 38.404297,0 V 0.52929687 134.94922 v 0.5293 h 1.058594 V 134.94922 0.52929687 0 Z"
       id="path34" />
    <path
       style="color:#000000;fill:#05c3de;stroke-linecap:square;-inkscape-stroke:none"
       d="M 115.21289,0.00390625 V 0.53320312 134.93359 v 0.5293 h 1.05859 V 134.93359 0.53320312 0.00390625 Z"
       id="path35" />
    <path
       style="color:#000000;fill:#05c3de;stroke-linecap:square;-inkscape-stroke:none"
       d="M 96.009766,0.00390625 V 0.53320312 134.93359 v 0.5293 h 1.058593 V 134.93359 0.53320312 0.00390625 Z"
       id="path36" />
    <path
       style="color:#000000;fill:#05c3de;stroke-linecap:square;-inkscape-stroke:none"
       d="M 57.605469,-0.00390625 V 0.52539062 134.94141 135.4707 h 1.058593 V 134.94141 0.52539062 -0.00390625 Z"
       id="path38" />
    <path
       style="color:#000000;fill:#05c3de;stroke-linecap:square;-inkscape-stroke:none"
       d="M 76.808594,0 V 0.52929687 134.9375 v 0.5293 h 1.058593 V 134.9375 0.52929687 0 Z"
       id="path37" />
    <path
       style="color:#000000;fill:#05c3de;stroke-linecap:square;-inkscape-stroke:none"
       d="M 0,0 V 0.52929687 134.94922 v 0.5293 H 1.0585937 V 134.94922 0.52929687 0 Z"
       id="path39" />
    <path
       style="color:#000000;fill:#05c3de;stroke-linecap:square;-inkscape-stroke:none"
       d="M 134.41406,0.00390625 V 0.53320312 134.93359 v 0.5293 h 1.0586 V 134.93359 0.53320312 0.00390625 Z"
       id="path40" />
  </g>
  <path
     style="display:inline;fill:#05c3de;fill-opacity:1;stroke:none;stroke-width:1.05833;stroke-linecap:round;stroke-dasharray:none"
     d="M 4.3014705,64.311454 91.607452,0.53224062 106.53569,0.52916503 33.263616,53.379003 134.94368,14.045025 V 24.828261 L 28.879356,63.561455 134.94368,63.605605 v 8 L 28.831026,71.561455 134.94368,110.07921 v 10.04202 L 33.206406,81.736483 108.5746,134.94886 H 93.432527 L 4.3014703,70.811454 c -4.11395602,-3.471724 -4.13624935,-3.471724 2e-7,-6.5 v 0"
     id="path16" />
  <path
     d="M 18.440538,62.964848 H 9.1531186 V 33.993258 H 18.440538 Z M 18.698522,29.865516 H 8.8951347 v -7.04296 h 9.8033873 z m 26.391752,33.847485 q -4.282533,0 -7.920106,-1.264121 -3.611774,-1.264121 -6.217411,-3.766565 -2.605637,-2.502443 -4.050347,-6.24321 -1.418911,-3.740766 -1.418911,-8.64246 0,-4.566314 1.367314,-8.281282 1.367315,-3.714968 3.972952,-6.372202 2.502444,-2.55404 6.191613,-3.947153 3.714968,-1.393113 8.100694,-1.393113 2.425048,0 4.359927,0.283782 1.960678,0.257984 3.611775,0.696557 1.728492,0.490169 3.121605,1.10933 1.418911,0.593363 2.476645,1.109331 v 9.313218 h -1.135129 q -0.722355,-0.619161 -1.831686,-1.470508 -1.083532,-0.851347 -2.476645,-1.676895 -1.418911,-0.825549 -3.070008,-1.393113 -1.651097,-0.567565 -3.534379,-0.567565 -2.08967,0 -3.972952,0.670758 -1.883282,0.64496 -3.482782,2.167065 -1.522105,1.470508 -2.476645,3.895556 -0.928742,2.425049 -0.928742,5.882033 0,3.611774 1.006137,6.036823 1.031935,2.425048 2.579838,3.818161 1.573702,1.418911 3.508581,2.038073 1.934879,0.593363 3.818162,0.593363 1.805887,0 3.560177,-0.541767 1.780089,-0.541766 3.276395,-1.470508 1.264121,-0.748153 2.347654,-1.5995 1.083532,-0.851347 1.780088,-1.470508 h 1.031936 v 9.184226 q -1.44471,0.64496 -2.760428,1.212524 -1.315717,0.567565 -2.760427,0.980339 -1.883282,0.541766 -3.534379,0.825549 -1.651097,0.283782 -4.540516,0.283782 z m 49.45551,-0.748153 H 85.206767 V 48.595146 q 0,-1.754291 -0.180588,-3.482783 -0.180589,-1.75429 -0.619162,-2.579839 -0.515967,-0.95454 -1.522105,-1.393113 -0.980338,-0.438572 -2.760427,-0.438572 -1.264121,0 -2.579839,0.412774 -1.289919,0.412774 -2.812024,1.315718 v 20.535517 h -9.28742 V 22.822556 h 9.28742 v 14.369702 q 2.476645,-1.934879 4.746903,-2.966814 2.296057,-1.031936 5.082283,-1.031936 4.695306,0 7.326742,2.734629 2.657234,2.734629 2.657234,8.178089 z M 120.62795,55.40592 v -6.036823 q -1.88328,0.154791 -4.07614,0.438573 -2.19287,0.257984 -3.32799,0.619161 -1.39312,0.438573 -2.14127,1.289919 -0.72236,0.825549 -0.72236,2.192863 0,0.902944 0.15479,1.470509 0.1548,0.567564 0.77396,1.083532 0.59336,0.515968 1.41891,0.773951 0.82555,0.232186 2.57984,0.232186 1.39311,0 2.81202,-0.567565 1.44471,-0.567564 2.52824,-1.496306 z m 0,4.488919 q -0.74815,0.567565 -1.85748,1.367315 -1.10933,0.79975 -2.08967,1.264121 -1.36732,0.619161 -2.83782,0.902944 -1.47051,0.30958 -3.2248,0.30958 -4.12774,0 -6.91397,-2.55404 -2.78623,-2.554041 -2.78623,-6.526992 0,-3.173202 1.41892,-5.185476 1.41891,-2.012275 4.02454,-3.173202 2.57984,-1.160927 6.398,-1.651097 3.81817,-0.490169 7.92011,-0.722355 v -0.15479 q 0,-2.39925 -1.96068,-3.302194 -1.96068,-0.928742 -5.77884,-0.928742 -2.29605,0 -4.90169,0.825549 -2.60564,0.79975 -3.74077,1.238322 h -0.85134 v -6.991363 q 1.4705,-0.386975 4.7727,-0.902943 3.32799,-0.541766 6.65598,-0.541766 7.92011,0 11.42869,2.450846 3.53438,2.425049 3.53438,7.636323 v 19.709969 h -9.21003 z m 38.74918,-17.052734 h -0.82555 q -0.59336,-0.206387 -1.90908,-0.309581 -1.31572,-0.103193 -2.19286,-0.103193 -1.98648,0 -3.50859,0.257984 -1.5221,0.257984 -3.27639,0.877145 v 19.400388 h -9.28742 v -28.97159 h 9.28742 v 4.256734 q 3.07001,-2.631436 5.34027,-3.482782 2.27025,-0.877146 4.17933,-0.877146 0.49017,0 1.10934,0.0258 0.61916,0.0258 1.08353,0.07739 z m 23.78611,19.864759 q -1.49631,0.386976 -3.1732,0.593363 -1.6769,0.232185 -4.10195,0.232185 -5.41766,0 -8.07489,-2.192863 -2.63144,-2.192863 -2.63144,-7.507331 V 40.288065 h -3.81816 v -6.294807 h 3.81816 v -8.281282 h 9.28742 v 8.281282 h 8.69406 v 6.294807 h -8.69406 v 10.267758 q 0,1.522105 0.0258,2.657234 0.0258,1.135129 0.41277,2.038073 0.36118,0.902943 1.26413,1.444709 0.92874,0.515968 2.68303,0.515968 0.72235,0 1.88328,-0.309581 1.18673,-0.30958 1.6511,-0.567564 h 0.77395 z"
     id="text38"
     style="font-weight:bold;font-size:52.8351px;-inkscape-font-specification:'sans-serif Bold';display:inline;fill:#068b9d;stroke-width:2.11667;stroke-linecap:round"
     aria-label="iChart"
     transform="scale(0.70534113,1.4177537)" />
  <path
     id="rect5"
     style="fill:#ffffff;stroke-width:1.05833;stroke-linecap:square"
     d="m 54.981846,117.5658 h 6.288812 v 5.17576 h -6.288812 z" />
  <path
     id="rect6"
     style="fill:#ffffff;stroke-width:1.05833;stroke-linecap:square"
     d="m 15.83301,116.33723 h 6.288811 v 6.48918 H 15.83301 Z" />
  <path
     style="-inkscape-font-specification:'sans-serif Bold Italic';fill:#068b9d;stroke-width:1.05833;stroke-linecap:square"
     d="m 10.332772,118.36549 q 0,0.42168 -0.232544,0.69763 -0.2294438,0.27285 -0.7038334,0.41238 l -0.0062,0.0248 q 0.3751709,0.10852 0.5674072,0.31316 0.1953374,0.20464 0.1953374,0.57671 0,0.72864 -0.5984135,1.13792 -0.5953125,0.40927 -1.6867188,0.40927 H 5.8679278 l 1.0666016,-4.61677 h 1.6836181 q 0.8340576,0 1.2743408,0.27595 0.4402837,0.27285 0.4402837,0.76895 z m -1.2588384,0.18913 q 0,-0.20464 -0.1612304,-0.29455 -0.1612305,-0.093 -0.4464844,-0.093 H 7.9298175 l -0.2263428,0.97668 h 0.5426025 q 0.3906738,0 0.6077148,-0.14882 0.2201416,-0.15193 0.2201416,-0.44029 z m -0.1333251,1.86656 q 0,-0.25425 -0.1922364,-0.36587 -0.1922363,-0.11472 -0.6046142,-0.11472 H 7.5205401 l -0.2666504,1.15031 h 0.6015137 q 0.5208984,0 0.8030517,-0.17053 0.2821534,-0.17053 0.2821534,-0.49919 z m 2.9889645,2.79362 h -1.224731 l 0.886767,-1.34565 -0.573608,-3.41375 h 1.141016 l 0.300757,2.28204 1.32705,-2.28204 h 1.178223 z m 7.841383,-2.79983 q -0.189136,0.81236 -0.710035,1.20303 -0.520898,0.39068 -1.426269,0.39068 -0.331763,0 -0.598413,-0.0248 -0.266651,-0.0217 -0.47749,-0.0651 l 0.220141,-0.95498 h 0.111621 q 0.133325,0.0527 0.282154,0.10232 0.151928,0.0496 0.403076,0.0496 0.474389,0 0.710034,-0.22635 0.235644,-0.22634 0.384473,-0.88056 l 0.42478,-1.83865 h -1.054199 l 0.195337,-0.84956 h 2.251025 z m 4.719091,-0.68522 q 0,0.48989 -0.164331,0.91777 -0.164331,0.42788 -0.461987,0.73484 -0.310059,0.31936 -0.719336,0.49299 -0.409278,0.17053 -0.954981,0.17053 -0.778247,0 -1.193725,-0.37207 -0.415479,-0.37207 -0.415479,-1.02939 0,-0.46509 0.155029,-0.88367 0.15503,-0.41858 0.458887,-0.73794 0.294556,-0.31316 0.722437,-0.49299 0.430981,-0.18294 0.964282,-0.18294 0.781347,0 1.193725,0.36897 0.415479,0.36587 0.415479,1.0139 z m -1.451074,1.14101 q 0.142627,-0.21704 0.21394,-0.47439 0.07441,-0.25735 0.07441,-0.62632 0,-0.31936 -0.139526,-0.48989 -0.139527,-0.17363 -0.443384,-0.17363 -0.235644,0 -0.415478,0.11472 -0.176734,0.11472 -0.31316,0.32556 -0.127124,0.19534 -0.201538,0.48369 -0.07131,0.28836 -0.07131,0.59221 0,0.35657 0.15813,0.5116 0.15813,0.15193 0.434082,0.15193 0.201538,0 0.387573,-0.10852 0.186035,-0.11162 0.31626,-0.30696 z m 5.869408,-1.62781 q 0,0.0744 -0.0124,0.19224 -0.0124,0.11782 -0.04031,0.23564 l -0.523999,2.26653 h -1.128613 l 0.399975,-1.72702 q 0.04341,-0.19844 0.06821,-0.33487 0.02481,-0.13642 0.02481,-0.24494 0,-0.20774 -0.10542,-0.29766 -0.102319,-0.093 -0.375171,-0.093 -0.133325,0 -0.306958,0.0589 -0.173633,0.0558 -0.387573,0.17054 l -0.570508,2.46806 H 24.82801 l 1.11311,-4.82451 h 1.122413 l -0.396875,1.72703 q 0.341064,-0.22635 0.626318,-0.35347 0.285254,-0.12712 0.626318,-0.12712 0.47439,0 0.731738,0.23254 0.257349,0.22944 0.257349,0.65112 z m 2.933154,1.0511 q -0.297657,0.0248 -0.558106,0.0589 -0.260449,0.0341 -0.443384,0.0992 -0.189135,0.0682 -0.288354,0.19224 -0.09922,0.12402 -0.09922,0.32866 0,0.17983 0.130225,0.25425 0.133325,0.0713 0.384472,0.0713 0.164332,0 0.350367,-0.0744 0.189135,-0.0775 0.353466,-0.19534 z m -0.294556,1.27434 q -0.10542,0.0682 -0.254248,0.16433 -0.148828,0.0961 -0.275952,0.15193 -0.173633,0.0713 -0.325562,0.10852 -0.151928,0.0372 -0.421679,0.0372 -0.434082,0 -0.710035,-0.24185 -0.272851,-0.24494 -0.272851,-0.63562 0,-0.41237 0.195337,-0.69763 0.195337,-0.28835 0.579809,-0.45888 0.359668,-0.16123 0.855762,-0.23255 0.499194,-0.0713 1.079004,-0.10542 0.0031,-0.0186 0.0124,-0.0589 0.0093,-0.0434 0.0093,-0.0961 0,-0.22014 -0.204639,-0.30696 -0.204638,-0.0899 -0.610815,-0.0899 -0.275952,0 -0.610815,0.093 -0.331763,0.093 -0.499195,0.15502 h -0.102319 l 0.164331,-0.82475 q 0.195337,-0.0496 0.604614,-0.11162 0.409278,-0.062 0.815454,-0.062 0.818555,0 1.199927,0.21394 0.384473,0.21394 0.384473,0.66352 0,0.062 -0.0124,0.16123 -0.0093,0.0992 -0.0279,0.17364 l -0.545703,2.36884 h -1.11001 z m 6.123658,-2.32544 q 0,0.093 -0.0124,0.20154 -0.0124,0.10852 -0.04031,0.22634 l -0.520899,2.26653 h -1.128613 l 0.396875,-1.72702 q 0.04341,-0.19224 0.06821,-0.32867 0.02481,-0.13642 0.02481,-0.25424 0,-0.20154 -0.10232,-0.29456 -0.102319,-0.093 -0.375171,-0.093 -0.133325,0 -0.306958,0.0589 -0.173633,0.0558 -0.390674,0.17054 l -0.567407,2.46806 h -1.122412 l 0.803052,-3.48196 h 1.122412 l -0.08992,0.38448 q 0.344165,-0.22635 0.626318,-0.35347 0.285254,-0.12712 0.626319,-0.12712 0.468188,0 0.728637,0.22634 0.26045,0.22634 0.26045,0.65732 z m 7.9313,-1.92236 -2.75022,4.61677 h -1.333252 l -0.617017,-4.61677 h 1.218531 l 0.368969,3.29592 1.838648,-3.29592 z m 1.463475,1.13481 -0.806152,3.48196 H 45.136848 L 45.943,118.4554 Z m 0.341065,-1.34255 -0.195337,0.84646 h -1.184424 l 0.195337,-0.84646 z m 3.636987,4.82451 h -1.175122 l -0.685229,-1.53789 -0.492994,0.44029 -0.257348,1.0976 h -1.122412 l 1.11311,-4.82451 h 1.122412 l -0.663525,2.88045 1.556494,-1.5379 h 1.286743 l -1.612305,1.51619 z m 2.762621,-4.82451 -1.11621,4.82451 h -1.122413 l 1.116211,-4.82451 z m 4.210596,1.34255 -0.806152,3.48196 h -1.122412 l 0.08992,-0.38447 q -0.167432,0.10852 -0.328662,0.20464 -0.15813,0.093 -0.300757,0.14883 -0.179834,0.0744 -0.328662,0.0992 -0.148828,0.0279 -0.294556,0.0279 -0.458887,0 -0.725537,-0.22014 -0.26355,-0.22014 -0.26355,-0.65112 0,-0.11783 0.0124,-0.21704 0.0124,-0.10232 0.04031,-0.22325 l 0.523999,-2.26653 h 1.128613 l -0.399975,1.72703 q -0.04651,0.19844 -0.07131,0.34107 -0.0217,0.14262 -0.0217,0.24184 0,0.20464 0.09922,0.29766 0.09922,0.0899 0.375171,0.0899 0.136426,0 0.313159,-0.0589 0.179834,-0.0589 0.387573,-0.17053 l 0.570508,-2.46807 z m 4.322216,0.78755 q 0,0.093 -0.0124,0.20154 -0.0124,0.10852 -0.04031,0.22634 l -0.520898,2.26653 h -1.128613 l 0.396875,-1.72702 q 0.04341,-0.19224 0.06821,-0.32867 0.02481,-0.13642 0.02481,-0.25424 0,-0.20154 -0.102319,-0.29456 -0.10232,-0.093 -0.375171,-0.093 -0.133325,0 -0.306958,0.0589 -0.173633,0.0558 -0.390674,0.17054 l -0.567407,2.46806 h -1.122412 l 0.803051,-3.48196 h 1.122413 l -0.08992,0.38448 q 0.344165,-0.22635 0.626318,-0.35347 0.285254,-0.12712 0.626318,-0.12712 0.468189,0 0.728638,0.22634 0.260449,0.22634 0.260449,0.65732 z m 4.954736,-2.1301 -1.116211,4.82451 H 65.05501 l 0.08372,-0.36277 q -0.161231,0.10232 -0.285254,0.18604 -0.120923,0.0806 -0.269751,0.14883 -0.139527,0.062 -0.275952,0.093 -0.133326,0.031 -0.322461,0.031 -0.505396,0 -0.809253,-0.32866 -0.300757,-0.32866 -0.300757,-0.93328 0,-0.49609 0.15813,-0.93017 0.16123,-0.43719 0.440283,-0.77205 0.272851,-0.32556 0.644922,-0.5178 0.37207,-0.19223 0.778247,-0.19223 0.285254,0 0.496094,0.0589 0.210839,0.0558 0.434082,0.17673 l 0.344165,-1.48208 z m -1.621607,2.15491 q -0.08992,-0.0434 -0.235644,-0.0775 -0.145728,-0.0372 -0.257349,-0.0372 -0.26665,0 -0.480591,0.11782 -0.21394,0.11782 -0.362768,0.32246 -0.133325,0.18293 -0.21084,0.46819 -0.07752,0.28215 -0.07752,0.5457 0,0.31316 0.145728,0.45579 0.145727,0.14262 0.443384,0.14262 0.151928,0 0.31936,-0.0682 0.170532,-0.0682 0.322461,-0.16123 z"
     id="text4"
     aria-label="By Johan Viklund" />
</svg>
