<?xml version="1.0" encoding="UTF-8" standalone="no"?>
<!-- Created with Inkscape (http://www.inkscape.org/) -->

<svg
   width="512"
   height="512"
   viewBox="0 0 135.46667 135.46667"
   version="1.1"
   id="svg1"
   xmlns:xlink="http://www.w3.org/1999/xlink"
   xmlns="http://www.w3.org/2000/svg"
   xmlns:svg="http://www.w3.org/2000/svg">
  <defs
     id="defs1">
    <color-profile
       name="Display-P3"
       xlink:href="file:///System/Library/ColorSync/Profiles/Display%20P3.icc"
       id="color-profile1" />
    <color-profile
       name="sRGB-IEC61966-2.1"
       xlink:href="file:///System/Library/ColorSync/Profiles/sRGB%20Profile.icc"
       id="color-profile2" />
  </defs>
  <g
     id="layer1"
     style="display:inline">
    <path
       d="M 0,0 V 135.46667 H 135.46667 V 0 Z"
       style="fill:#ffffff;stroke-width:1.05833;stroke-linecap:square"
       id="path4" />
  </g>
  <g
     id="g39"
     transform="translate(-0.26458496,0.27594)">
    <path
       style="color:#000000;fill:#05c3de;stroke-linecap:square;-inkscape-stroke:none"
       d="M 0.265625,-0.27539063 V 0.78320312 H 0.79492187 135.20117 h 0.5293 V -0.27539063 H 135.20117 0.79492187 Z"
       id="path26" />
    <path
       style="color:#000000;fill:#05c3de;stroke-linecap:square;-inkscape-stroke:none"
       d="m 0.26367188,129.33594 v 1.05859 H 0.79296875 135.20898 h 0.5293 v -1.05859 H 135.20898 0.79296875 Z"
       id="path27" />
    <path
       style="color:#000000;fill:#05c3de;stroke-linecap:square;-inkscape-stroke:none"
       d="m 0.26367188,123.96094 v 1.05859 H 0.79296875 134.94922 h 0.5293 v -1.05859 H 134.94922 0.79296875 Z"
       id="path28" />
    <path
       style="color:#000000;fill:#05c3de;stroke-linecap:square;-inkscape-stroke:none"
       d="m 0.26367188,113.48633 v 1.05859 H 0.79296875 135.20898 h 0.5293 v -1.05859 H 135.20898 0.79296875 Z"
       id="path29" />
    <path
       style="color:#000000;fill:#05c3de;stroke-linecap:square;-inkscape-stroke:none"
       d="m 0.265625,92.476562 v 1.058594 H 0.79492187 135.20117 h 0.5293 V 92.476562 H 135.20117 0.79492187 Z"
       id="path31" />
    <path
       style="color:#000000;fill:#05c3de;stroke-linecap:square;-inkscape-stroke:none"
       d="m 0.26367188,49.960937 v 1.058594 H 0.79296875 135.20898 h 0.5293 V 49.960937 H 135.20898 0.79296875 Z"
       id="path41" />
    <path
       style="color:#000000;fill:#05c3de;stroke-linecap:square;-inkscape-stroke:none"
       d="m 0.265625,134.14453 v 1.05664 H 0.79492187 135.20117 h 0.5293 v -1.05664 H 135.20117 0.79492187 Z"
       id="path32" />
  </g>
  <g
     id="g40">
    <path
       style="color:#000000;fill:#05c3de;stroke-linecap:square;-inkscape-stroke:none"
       d="M 19.201172,0.26367188 V 0.79296875 134.94922 v 0.5293 h 1.058594 V 134.94922 0.79296875 0.26367188 Z"
       id="path33" />
    <path
       style="color:#000000;fill:#05c3de;stroke-linecap:square;-inkscape-stroke:none"
       d="M 38.404297,0 V 0.52929687 134.94922 v 0.5293 h 1.058594 V 134.94922 0.52929687 0 Z"
       id="path34" />
    <path
       style="color:#000000;fill:#05c3de;stroke-linecap:square;-inkscape-stroke:none"
       d="M 115.21289,0.00390625 V 0.53320312 134.93359 v 0.5293 h 1.05859 V 134.93359 0.53320312 0.00390625 Z"
       id="path35" />
    <path
       style="color:#000000;fill:#05c3de;stroke-linecap:square;-inkscape-stroke:none"
       d="M 96.009766,0.00390625 V 0.53320312 134.93359 v 0.5293 h 1.058593 V 134.93359 0.53320312 0.00390625 Z"
       id="path36" />
    <path
       style="color:#000000;fill:#05c3de;stroke-linecap:square;-inkscape-stroke:none"
       d="M 57.605469,-0.00390625 V 0.52539062 134.94141 135.4707 h 1.058593 V 134.94141 0.52539062 -0.00390625 Z"
       id="path38" />
    <path
       style="color:#000000;fill:#05c3de;stroke-linecap:square;-inkscape-stroke:none"
       d="M 76.808594,0 V 0.52929687 134.9375 v 0.5293 h 1.058593 V 134.9375 0.52929687 0 Z"
       id="path37" />
    <path
       style="color:#000000;fill:#05c3de;stroke-linecap:square;-inkscape-stroke:none"
       d="M 0,0 V 0.52929687 134.94922 v 0.5293 H 1.0585937 V 134.94922 0.52929687 0 Z"
       id="path39" />
    <path
       style="color:#000000;fill:#05c3de;stroke-linecap:square;-inkscape-stroke:none"
       d="M 134.41406,0.00390625 V 0.53320312 134.93359 v 0.5293 h 1.0586 V 134.93359 0.53320312 0.00390625 Z"
       id="path40" />
  </g>
  <path
     style="display:inline;fill:#05c3de;fill-opacity:1;stroke:none;stroke-width:1.05833;stroke-linecap:round;stroke-dasharray:none"
     d="M 4.3014705,64.311454 91.607452,0.53224062 106.53569,0.52916503 33.263616,53.379003 134.94368,14.045025 V 24.828261 L 28.879356,63.561455 134.94368,63.605605 v 8 L 28.831026,71.561455 134.94368,110.07921 v 10.04202 L 33.206406,81.736483 108.5746,134.94886 H 93.432527 L 4.3014703,70.811454 c -4.11395602,-3.471724 -4.13624935,-3.471724 2e-7,-6.5 v 0"
     id="path16" />
  <path
     d="m 20.119709,73.225708 q -2.757432,0 -5.099588,-0.813941 -2.325545,-0.81394 -4.00326,-2.425211 -1.6777146,-1.61127 -2.6079326,-4.019871 -0.913607,-2.4086 -0.913607,-5.564697 0,-2.940153 0.8803849,-5.332142 0.8803849,-2.391989 2.5580997,-4.102926 1.61127,-1.644493 3.986648,-2.541489 2.39199,-0.896995 5.215866,-0.896995 1.561437,0 2.807265,0.182721 1.262439,0.16611 2.325545,0.448498 1.112939,0.31561 2.009935,0.714274 0.913607,0.382054 1.59466,0.714275 v 5.996584 h -0.730886 q -0.465109,-0.398665 -1.179383,-0.946829 -0.697664,-0.548164 -1.59466,-1.079717 -0.913607,-0.531554 -1.976713,-0.896996 -1.063107,-0.365443 -2.275712,-0.365443 -1.345494,0 -2.5581,0.431887 -1.212605,0.415276 -2.24249,1.395327 -0.980051,0.946829 -1.594659,2.508266 -0.597997,1.561438 -0.597997,3.787316 0,2.325545 0.64783,3.886983 0.664442,1.561437 1.661104,2.458433 1.013273,0.913607 2.259101,1.312272 1.245827,0.382054 2.458433,0.382054 1.162772,0 2.292323,-0.348832 1.146161,-0.348832 2.109601,-0.946829 0.813941,-0.48172 1.511605,-1.029884 0.697663,-0.548164 1.146161,-0.946829 h 0.664442 v 5.913528 q -0.930218,0.415276 -1.777381,0.780719 -0.847163,0.365443 -1.777381,0.63122 -1.212606,0.348831 -2.275712,0.531553 -1.063106,0.182721 -2.923542,0.182721 z M 51.597622,64.521525 H 37.910129 q 0.132888,2.192657 1.661103,3.35543 1.544827,1.162772 4.534813,1.162772 1.893658,0 3.671039,-0.681052 1.777381,-0.681053 2.807265,-1.461772 h 0.664441 v 4.80059 q -2.026546,0.813941 -3.820538,1.179383 -1.793992,0.365443 -3.970037,0.365443 -5.614531,0 -8.604517,-2.524877 -2.989986,-2.524878 -2.989986,-7.192579 0,-4.617868 2.823876,-7.308856 2.840487,-2.707599 7.773964,-2.707599 4.551424,0 6.843747,2.308934 2.292323,2.292323 2.292323,6.611193 z m -5.946751,-3.504928 q -0.04983,-1.877047 -0.930218,-2.823876 -0.880385,-0.946829 -2.740821,-0.946829 -1.727547,0 -2.840487,0.896995 -1.112939,0.896996 -1.245827,2.87371 z M 61.796799,72.743988 H 55.816826 V 46.897216 h 5.979973 z M 85.816355,64.521525 H 72.128861 q 0.132889,2.192657 1.661104,3.35543 1.544826,1.162772 4.534813,1.162772 1.893658,0 3.671039,-0.681052 1.777381,-0.681053 2.807265,-1.461772 h 0.664441 v 4.80059 q -2.026546,0.813941 -3.820538,1.179383 -1.793992,0.365443 -3.970038,0.365443 -5.61453,0 -8.604516,-2.524877 -2.989987,-2.524878 -2.989987,-7.192579 0,-4.617868 2.823876,-7.308856 2.840488,-2.707599 7.773965,-2.707599 4.551424,0 6.843747,2.308934 2.292323,2.292323 2.292323,6.611193 z m -5.946751,-3.504928 q -0.04983,-1.877047 -0.930218,-2.823876 -0.880385,-0.946829 -2.740821,-0.946829 -1.727548,0 -2.840487,0.896995 -1.112939,0.896996 -1.245828,2.87371 z M 103.55694,59.78738 h -0.53155 q -0.38205,-0.132888 -1.22922,-0.199332 -0.84716,-0.06645 -1.41193,-0.06645 -1.279054,0 -2.259105,0.166111 -0.980051,0.16611 -2.109602,0.564775 V 72.743988 H 90.03556 V 54.089795 h 5.979973 v 2.740821 q 1.976714,-1.694326 3.438485,-2.24249 1.461772,-0.564775 2.690992,-0.564775 0.31561,0 0.71427,0.01661 0.39866,0.01661 0.69766,0.04983 z m 14.68416,8.089575 v -3.886983 q -1.21261,0.09967 -2.62454,0.282388 -1.41194,0.16611 -2.14283,0.398665 -0.89699,0.282387 -1.37871,0.830551 -0.46511,0.531554 -0.46511,1.411938 0,0.581387 0.0997,0.946829 0.0997,0.365443 0.49833,0.697664 0.38206,0.332221 0.91361,0.498331 0.53155,0.149499 1.6611,0.149499 0.897,0 1.81061,-0.365442 0.93022,-0.365443 1.62788,-0.96344 z m 0,2.89032 q -0.48172,0.365443 -1.196,0.880385 -0.71427,0.514942 -1.34549,0.81394 -0.88038,0.398665 -1.82721,0.581387 -0.94683,0.199332 -2.07638,0.199332 -2.65777,0 -4.45176,-1.644492 -1.79399,-1.644493 -1.79399,-4.202593 0,-2.043157 0.9136,-3.338818 0.91361,-1.295661 2.59133,-2.043157 1.6611,-0.747497 4.11953,-1.063106 2.45844,-0.31561 5.09959,-0.465109 v -0.09967 q 0,-1.544826 -1.26244,-2.126212 -1.26244,-0.597998 -3.72087,-0.597998 -1.47838,0 -3.1561,0.531554 -1.67771,0.514942 -2.4086,0.797329 h -0.54816 v -4.50159 q 0.94683,-0.249166 3.07304,-0.581387 2.14282,-0.348831 4.28565,-0.348831 5.09959,0 7.35869,1.578048 2.27571,1.561437 2.27571,4.916867 v 12.690831 h -5.93014 z m 23.35512,1.810603 q -0.96344,0.249165 -2.04316,0.382054 -1.07972,0.149499 -2.64115,0.149499 -3.48832,0 -5.19926,-1.411938 -1.69432,-1.411938 -1.69432,-4.833812 v -8.720794 h -2.45844 v -4.053092 h 2.45844 v -5.332143 h 5.97997 v 5.332143 h 5.59792 v 4.053092 h -5.59792 v 6.611193 q 0,0.980051 0.0166,1.710936 0.0166,0.730886 0.26578,1.312272 0.23255,0.581387 0.81394,0.930218 0.59799,0.332221 1.72755,0.332221 0.4651,0 1.2126,-0.199332 0.76411,-0.199333 1.06311,-0.365443 h 0.49833 z m 22.64084,-9.152681 q 0,4.601257 -2.69099,7.259023 -2.67438,2.641154 -7.5248,2.641154 -4.85042,0 -7.54141,-2.641154 -2.67438,-2.657766 -2.67438,-7.259023 0,-4.634479 2.69099,-7.275634 2.7076,-2.641155 7.5248,-2.641155 4.88364,0 7.54141,2.657766 2.67438,2.657766 2.67438,7.259023 z m -7.35869,4.534813 q 0.58138,-0.714275 0.86377,-1.710937 0.299,-1.013273 0.299,-2.790654 0,-1.644493 -0.299,-2.757432 -0.299,-1.112939 -0.83055,-1.777381 -0.53155,-0.681052 -1.27905,-0.96344 -0.7475,-0.282388 -1.61127,-0.282388 -0.86377,0 -1.54483,0.232555 -0.66444,0.232554 -1.27905,0.930218 -0.54816,0.64783 -0.88038,1.777381 -0.31561,1.12955 -0.31561,2.840487 0,1.528215 0.28239,2.657766 0.28238,1.112939 0.83055,1.793992 0.53155,0.64783 1.26244,0.946829 0.74749,0.298998 1.69432,0.298998 0.81394,0 1.54483,-0.265776 0.7475,-0.282388 1.26244,-0.930218 z m 25.16572,-8.17263 h -0.53156 q -0.38205,-0.132888 -1.22921,-0.199332 -0.84716,-0.06645 -1.41194,-0.06645 -1.27905,0 -2.2591,0.166111 -0.98005,0.16611 -2.1096,0.564775 V 72.743988 H 168.5227 V 54.089795 h 5.97998 v 2.740821 q 1.97671,-1.694326 3.43848,-2.24249 1.46177,-0.564775 2.69099,-0.564775 0.31561,0 0.71427,0.01661 0.39867,0.01661 0.69767,0.04983 z"
     id="text38"
     style="-inkscape-font-specification:'sans-serif Bold';opacity:0.9;fill:#068b9d;stroke-width:2.11668;stroke-linecap:round"
     transform="scale(0.71471506,1.399159)"
     aria-label="Celerator" />
  <path
     d="m 72.693641,30.216432 q 0,5.913529 -3.388651,9.401846 -3.388652,3.471707 -9.368625,3.471707 -5.963362,0 -9.352013,-3.471707 -3.388651,-3.488317 -3.388651,-9.401846 0,-5.963362 3.388651,-9.418457 3.388651,-3.471707 9.352013,-3.471707 5.946751,0 9.352014,3.471707 3.405262,3.455095 3.405262,9.418457 z m -8.455017,6.262361 q 0.930218,-1.129551 1.378716,-2.657766 0.448498,-1.544827 0.448498,-3.621206 0,-2.225879 -0.514943,-3.787316 -0.514942,-1.561438 -1.345493,-2.524878 -0.847163,-0.996662 -1.960103,-1.44516 -1.096328,-0.448498 -2.292323,-0.448498 -1.212605,0 -2.292323,0.431887 -1.063106,0.431887 -1.960102,1.428549 -0.830552,0.930218 -1.362105,2.574711 -0.514942,1.627881 -0.514942,3.787316 0,2.209268 0.498331,3.770705 0.514942,1.544826 1.345494,2.524878 0.830552,0.980051 1.943491,1.44516 1.11294,0.465109 2.342156,0.465109 1.229217,0 2.342156,-0.465109 1.11294,-0.48172 1.943492,-1.478382 z m 32.457963,-3.488318 q 0,2.308934 -0.714274,4.202592 -0.697664,1.893658 -1.843825,3.122875 -1.195995,1.295661 -2.707599,1.960102 -1.511604,0.664442 -3.239152,0.664442 -1.594659,0 -2.707599,-0.348832 -1.112939,-0.332221 -2.275712,-0.946829 V 49.41879 H 77.228453 V 23.920849 h 5.979973 v 1.943492 q 1.378716,-1.096329 2.807265,-1.777381 1.44516,-0.681053 3.322208,-0.681053 3.488317,0 5.415197,2.5581 1.943491,2.558099 1.943491,7.026468 z m -6.162694,0.116277 q 0,-2.72421 -0.930218,-3.953426 -0.930218,-1.229217 -2.940153,-1.229217 -0.847163,0 -1.744159,0.265777 -0.896996,0.249165 -1.710937,0.730885 v 9.385235 q 0.597998,0.232555 1.27905,0.298999 0.681053,0.06644 1.345494,0.06644 2.375378,0 3.538151,-1.378716 1.162772,-1.395327 1.162772,-4.185981 z m 28.853367,1.245828 h -13.68749 q 0.13289,2.192657 1.6611,3.355429 1.54483,1.162773 4.53482,1.162773 1.89365,0 3.67104,-0.681053 1.77738,-0.681052 2.80726,-1.461771 h 0.66444 v 4.800589 q -2.02654,0.813941 -3.82054,1.179384 -1.79399,0.365443 -3.97003,0.365443 -5.61453,0 -8.60452,-2.524878 -2.989987,-2.524877 -2.989987,-7.192578 0,-4.617868 2.823877,-7.308856 2.84049,-2.707599 7.77396,-2.707599 4.55143,0 6.84375,2.308934 2.29232,2.292323 2.29232,6.611192 z m -5.94675,-3.504929 q -0.0498,-1.877047 -0.93022,-2.823876 -0.88038,-0.946829 -2.74082,-0.946829 -1.72754,0 -2.84048,0.896996 -1.11294,0.896996 -1.24583,2.873709 z m 28.9032,11.727392 h -6.0132 v -9.252347 q 0,-1.129551 -0.11627,-2.24249 -0.11628,-1.129551 -0.39867,-1.661104 -0.33222,-0.614608 -0.98005,-0.896996 -0.63122,-0.282387 -1.77738,-0.282387 -0.81394,0 -1.6611,0.265776 -0.83055,0.265777 -1.81061,0.847163 v 13.222385 h -5.97997 V 23.920849 h 5.97997 v 2.059769 q 1.59466,-1.245828 3.05643,-1.910269 1.47839,-0.664442 3.27238,-0.664442 3.02321,0 4.71753,1.76077 1.71094,1.76077 1.71094,5.265698 z"
     id="text38-2"
     style="-inkscape-font-specification:'sans-serif Bold';opacity:0.9;fill:#068b9d;stroke-width:2.11668;stroke-linecap:round"
     transform="scale(0.71471506,1.399159)"
     aria-label="Open" />
  <path
     id="rect5-8"
     style="display:inline;fill:#ffffff;stroke-width:1.05833;stroke-linecap:square"
     d="m 56.356251,117.39533 h 6.288811 v 5.33128 h -6.288811 z" />
  <path
     id="rect4"
     style="fill:#ffffff;stroke-width:1.05833;stroke-linecap:square"
     d="m 35.928303,116.341 h 6.288811 v 6.48918 h -6.288811 z" />
  <path
     id="rect6"
     style="fill:#ffffff;stroke-width:1.05833;stroke-linecap:square"
     d="m 16.402153,116.341 h 6.288812 v 6.48918 h -6.288812 z" />
  <path
     style="-inkscape-font-specification:'sans-serif Bold Italic';fill:#068b9d;stroke-width:1.05833;stroke-linecap:square"
     d="m 9.8527434,114.79378 q 0,0.40932 -0.2257299,0.67719 -0.2227201,0.26485 -0.683209,0.40029 l -0.00602,0.0241 q 0.3641775,0.10534 0.5507809,0.30398 0.1896131,0.19864 0.1896131,0.55981 0,0.70729 -0.5808782,1.10457 -0.5778684,0.39729 -1.6372939,0.39729 H 5.5187302 l 1.0353476,-4.48149 h 1.6342841 q 0.8096178,0 1.2369996,0.26786 0.4273819,0.26486 0.4273819,0.74642 z m -1.221951,0.18359 q 0,-0.19864 -0.156506,-0.28593 -0.156506,-0.0903 -0.4334013,-0.0903 H 7.5202016 l -0.2197104,0.94807 h 0.526703 q 0.3792261,0 0.5899073,-0.14447 0.2136909,-0.14748 0.2136909,-0.42738 z m -0.1294184,1.81186 q 0,-0.2468 -0.1866034,-0.35515 -0.1866033,-0.11136 -0.5868976,-0.11136 H 7.122917 l -0.2588369,1.11661 H 7.447968 q 0.5056349,0 0.7795204,-0.16554 0.2738856,-0.16553 0.2738856,-0.48456 z m 2.901381,2.71177 h -1.188844 l 0.860783,-1.30623 -0.5568,-3.31371 h 1.107581 l 0.291944,2.21516 1.288165,-2.21516 h 1.143698 z m 7.611611,-2.71779 q -0.183594,0.78855 -0.689229,1.16777 -0.505635,0.37923 -1.384476,0.37923 -0.322042,0 -0.580878,-0.0241 -0.258837,-0.0211 -0.463499,-0.0632 l 0.213691,-0.927 h 0.10835 q 0.129419,0.0512 0.273886,0.0993 0.147477,0.0482 0.391265,0.0482 0.460489,0 0.689228,-0.21971 0.22874,-0.21971 0.373207,-0.85477 l 0.412333,-1.78477 h -1.023308 l 0.189613,-0.82466 h 2.185065 z m 4.580811,-0.66515 q 0,0.47554 -0.159516,0.89088 -0.159515,0.41534 -0.44845,0.7133 -0.300973,0.31001 -0.698257,0.47855 -0.397285,0.16554 -0.926998,0.16554 -0.755442,0 -1.158746,-0.36117 -0.403304,-0.36117 -0.403304,-0.99923 0,-0.45146 0.150486,-0.85778 0.150487,-0.40631 0.445441,-0.71631 0.285924,-0.30398 0.701267,-0.47855 0.418353,-0.17757 0.936026,-0.17757 0.758453,0 1.158747,0.35816 0.403304,0.35514 0.403304,0.98418 z m -1.408554,1.10758 q 0.138447,-0.21068 0.207671,-0.46049 0.07223,-0.24981 0.07223,-0.60797 0,-0.31 -0.135438,-0.47553 -0.135438,-0.16855 -0.430392,-0.16855 -0.228739,0 -0.403304,0.11136 -0.171554,0.11136 -0.303983,0.31602 -0.123399,0.18962 -0.195632,0.46952 -0.06922,0.27991 -0.06922,0.57486 0,0.34612 0.153496,0.49661 0.153497,0.14747 0.421363,0.14747 0.195632,0 0.376216,-0.10534 0.180584,-0.10835 0.306993,-0.29796 z m 5.697422,-1.58011 q 0,0.0722 -0.01204,0.1866 -0.01204,0.11437 -0.03913,0.22874 l -0.508644,2.20012 h -1.095543 l 0.388256,-1.67642 q 0.04214,-0.19263 0.06621,-0.32506 0.02408,-0.13242 0.02408,-0.23776 0,-0.20166 -0.102331,-0.28894 -0.09932,-0.0903 -0.364178,-0.0903 -0.129418,0 -0.297963,0.0572 -0.168545,0.0542 -0.376217,0.16554 l -0.55379,2.39575 h -1.089523 l 1.080494,-4.68315 h 1.089522 l -0.385245,1.67642 q 0.33107,-0.21971 0.607966,-0.3431 0.276895,-0.1234 0.607965,-0.1234 0.460489,0 0.710297,0.22573 0.249808,0.22272 0.249808,0.63204 z m 2.847205,1.0203 q -0.288935,0.0241 -0.541752,0.0572 -0.252817,0.0331 -0.430392,0.0963 -0.183593,0.0662 -0.279905,0.18661 -0.09631,0.12039 -0.09631,0.31903 0,0.17456 0.126409,0.2468 0.129418,0.0692 0.373206,0.0692 0.159516,0 0.3401,-0.0722 0.183594,-0.0752 0.343109,-0.18961 z m -0.285925,1.237 q -0.102331,0.0662 -0.246798,0.15951 -0.144467,0.0933 -0.267866,0.14748 -0.168545,0.0692 -0.316022,0.10534 -0.147477,0.0361 -0.409323,0.0361 -0.421363,0 -0.689229,-0.23476 -0.264856,-0.23777 -0.264856,-0.617 0,-0.40029 0.189613,-0.67719 0.189613,-0.2799 0.56282,-0.44544 0.349129,-0.1565 0.830686,-0.22573 0.484566,-0.0692 1.047386,-0.10233 0.003,-0.0181 0.01204,-0.0572 0.009,-0.0421 0.009,-0.0933 0,-0.21369 -0.198642,-0.29797 -0.198642,-0.0873 -0.592917,-0.0873 -0.267866,0 -0.592917,0.0903 -0.322041,0.0903 -0.484567,0.15049 h -0.09932 l 0.159516,-0.80059 q 0.189613,-0.0481 0.586897,-0.10835 0.397285,-0.0602 0.79156,-0.0602 0.794569,0 1.164766,0.20767 0.373206,0.20767 0.373206,0.64408 0,0.0602 -0.01204,0.15651 -0.009,0.0963 -0.02709,0.16854 l -0.529713,2.29944 h -1.077484 z m 5.94422,-2.2573 q 0,0.0903 -0.01204,0.19563 -0.01204,0.10534 -0.03913,0.21971 l -0.505635,2.20012 h -1.095542 l 0.385246,-1.67642 q 0.04214,-0.18661 0.06621,-0.31904 0.02408,-0.13242 0.02408,-0.24679 0,-0.19564 -0.09932,-0.28593 -0.09932,-0.0903 -0.364177,-0.0903 -0.129419,0 -0.297964,0.0572 -0.168545,0.0542 -0.379226,0.16554 l -0.550781,2.39575 h -1.089522 l 0.77952,-3.37993 h 1.089523 l -0.08728,0.3732 q 0.33408,-0.21971 0.607965,-0.3431 0.276896,-0.1234 0.607966,-0.1234 0.45447,0 0.707287,0.21971 0.252817,0.21971 0.252817,0.63806 z m 7.698892,-1.86603 -2.669632,4.48149 h -1.294184 l -0.598937,-4.48149 h 1.182825 l 0.358158,3.19934 1.78477,-3.19934 z m 1.420595,1.10156 -0.78253,3.37993 h -1.089523 l 0.782531,-3.37993 z m 0.331071,-1.30322 -0.189613,0.82166 h -1.149718 l 0.189613,-0.82166 z m 3.530414,4.68315 h -1.140688 l -0.665151,-1.49283 -0.478547,0.42738 -0.249808,1.06545 h -1.089522 l 1.080493,-4.68315 h 1.089523 l -0.644083,2.79604 1.510886,-1.49282 h 1.249038 l -1.56506,1.47176 z m 2.681668,-4.68315 -1.083503,4.68315 h -1.089523 l 1.083504,-4.68315 z m 4.087219,1.30322 -0.78253,3.37993 h -1.089523 l 0.08728,-0.37321 q -0.162525,0.10534 -0.319031,0.19864 -0.153497,0.0903 -0.291944,0.14447 -0.174565,0.0722 -0.319032,0.0963 -0.144467,0.0271 -0.285924,0.0271 -0.445441,0 -0.704277,-0.21369 -0.255828,-0.21369 -0.255828,-0.63205 0,-0.11437 0.01204,-0.21068 0.01204,-0.0993 0.03913,-0.2167 l 0.508644,-2.20011 h 1.095543 l -0.388256,1.67642 q -0.04515,0.19262 -0.06922,0.33107 -0.02107,0.13845 -0.02107,0.23476 0,0.19864 0.09631,0.28893 0.09631,0.0873 0.364177,0.0873 0.132428,0 0.303983,-0.0572 0.174565,-0.0572 0.376217,-0.16554 l 0.55379,-2.39574 z m 4.195565,0.76447 q 0,0.0903 -0.01204,0.19563 -0.01204,0.10534 -0.03913,0.21971 l -0.505635,2.20012 h -1.095542 l 0.385246,-1.67642 q 0.04214,-0.18661 0.06621,-0.31904 0.02408,-0.13242 0.02408,-0.24679 0,-0.19564 -0.09932,-0.28593 -0.09932,-0.0903 -0.364177,-0.0903 -0.129418,0 -0.297963,0.0572 -0.168545,0.0542 -0.379227,0.16554 l -0.55078,2.39575 h -1.089523 l 0.77952,-3.37993 h 1.089523 l -0.08728,0.3732 q 0.33408,-0.21971 0.607966,-0.3431 0.276895,-0.1234 0.607965,-0.1234 0.45447,0 0.707287,0.21971 0.252818,0.21971 0.252818,0.63806 z m 4.809549,-2.06769 -1.083503,4.68315 h -1.089523 l 0.08126,-0.35214 q -0.156506,0.0993 -0.276895,0.18058 -0.11738,0.0783 -0.261847,0.14447 -0.135438,0.0602 -0.267866,0.0903 -0.129418,0.0301 -0.313012,0.0301 -0.490586,0 -0.78554,-0.31903 -0.291944,-0.31904 -0.291944,-0.90593 0,-0.48156 0.153497,-0.90292 0.156506,-0.42437 0.427381,-0.74943 0.264857,-0.31602 0.626025,-0.50262 0.361167,-0.1866 0.755442,-0.1866 0.276895,0 0.481557,0.0572 0.204662,0.0542 0.421363,0.17156 l 0.33408,-1.43866 z m -1.574089,2.09177 q -0.08728,-0.0421 -0.22874,-0.0753 -0.141457,-0.0361 -0.249807,-0.0361 -0.258837,0 -0.466509,0.11437 -0.207671,0.11437 -0.352138,0.31301 -0.129419,0.17757 -0.204662,0.45447 -0.07524,0.27388 -0.07524,0.52971 0,0.30398 0.141457,0.44243 0.141457,0.13845 0.430392,0.13845 0.147476,0 0.310002,-0.0662 0.165535,-0.0662 0.313012,-0.15651 z"
     id="text4"
     transform="scale(0.97069769,1.0301869)"
     aria-label="By Johan Viklund" />
</svg>
